# xmcd CD database file
#
# Track frame offsets:
#	150
#	875
#	19574
#	35947
#	50962
#	64032
#	83755
#	100639
#	117962
#	134774
#	155159
#	157534
#	172410
#	187489
#
# Disc length: 2534 seconds
#
# Revision: 0
# Processed by: cddbd v1.5.1PL0 Copyright (c) Steve Scherf et al.
# Submitted via: CDex 1.51
#
DISCID=be09e40e
DTITLE=Babyfat - Tested on Animals
DYEAR=2000
DGENRE=New Age
TTITLE0=Welcome
TTITLE1=Gone
TTITLE2=Leave the Light On
TTITLE3=Not Today
TTITLE4=Angel/Devil
TTITLE5=Willis
TTITLE6=Out of My Head
TTITLE7=Grin and Bear It
TTITLE8=The Power of Song
TTITLE9=Couchin'
TTITLE10=Sexy Intro
TTITLE11=What's That?!
TTITLE12=Every Day Is a New Day
TTITLE13=Testing on Animals
EXTD=YEAR: 2000
EXTT0=
EXTT1=
EXTT2=
EXTT3=
EXTT4=
EXTT5=
EXTT6=
EXTT7=
EXTT8=
EXTT9=
EXTT10=
EXTT11=
EXTT12=
EXTT13=
PLAYORDER=
